<?xml version="1.0" encoding="UTF-8"?>
<svg version="1.1" xmlns="http://www.w3.org/2000/svg" class="fill-blue-500" width="500" height="500">
<path d="M0 0 C6.30617752 5.33104122 12.43660989 10.78437695 17.6875 17.1875 C19.94512841 20.02604504 19.94512841 20.02604504 22.5 22.5 C30 30 30 30 30 33 C25.545 33.495 25.545 33.495 21 34 C32.39732465 52.03532691 47.05749281 62.21109056 67.99609375 67.30078125 C84.76835506 70.54394443 104.59197706 67.42556938 119 58 C135.11463945 46.70237141 145.14535853 31.31776966 149 12 C149.51862232 7.97956886 149.802228 4.05432604 150 0 C157.59 0 165.18 0 173 0 C171.21992129 23.3028485 166.13027577 43.24800889 150 61 C149.18917969 61.90363281 148.37835938 62.80726563 147.54296875 63.73828125 C131.65372836 80.55807744 109.06271516 91.32811325 85.84375 92.203125 C70.55602541 92.47771289 57.09804152 90.23674949 43 84 C42.14019531 83.63132812 41.28039062 83.26265625 40.39453125 82.8828125 C23.1631911 74.93831545 8.97917588 60.55068999 0 44 C-0.33 42.68 -0.66 41.36 -1 40 C-4.63 40.66 -8.26 41.32 -12 42 C-10.24495257 33.13398452 -7.52527641 24.56611389 -4.875 15.9375 C-4.40203262 14.38876686 -3.92937375 12.83993946 -3.45703125 11.29101562 C-2.30824335 7.52624712 -1.15528155 3.76278065 0 0 Z " fill="#000000" transform="translate(169,252)"/>
<path d="M0 0 C2.3125 1.8125 2.3125 1.8125 4 4 C3.75 6.125 3.75 6.125 3 8 C3 8.66 3 9.32 3 10 C4.65 9.67 6.3 9.34 8 9 C13.08904486 15.04876548 17.37152387 20.96982749 21 28 C24.3 27.67 27.6 27.34 31 27 C29.45696824 34.58936816 27.33778488 41.97517087 25.11376953 49.38647461 C24.49461201 51.45550496 23.88584832 53.52742441 23.27734375 55.59960938 C22.88343962 56.91945816 22.48893061 58.2391266 22.09375 59.55859375 C21.73990234 60.74767334 21.38605469 61.93675293 21.02148438 63.16186523 C20 66 20 66 18 68 C4.7483927 54.92773777 4.7483927 54.92773777 -0.30078125 48.98828125 C-3.78056712 44.91653181 -7.40906173 40.97364597 -11 37 C-8.08235 35.0549 -6.37462715 34.54723683 -3 34 C-4.06521343 30.61068455 -5.0706732 28.9293268 -7.625 26.375 C-8.40875 25.59125 -9.1925 24.8075 -10 24 C-10 23.01 -10 22.02 -10 21 C-10.86625 20.87625 -10.86625 20.87625 -11.75 20.75 C-14.6159304 19.79468987 -15.9990764 18.21530827 -18 16 C-16.14613875 10.59290468 -12.98081009 6.98081009 -9 3 C-8.34 2.01 -7.68 1.02 -7 0 C-3.80367098 -1.06544301 -3.02974348 -1.19353531 0 0 Z M0 11 C-0.99 11.495 -0.99 11.495 -2 12 C-2 12.66 -2 13.32 -2 14 C-1.01 13.67 -0.02 13.34 1 13 C0.67 12.34 0.34 11.68 0 11 Z M-6 16 C-6.33 16.66 -6.66 17.32 -7 18 C-6.01 17.67 -5.02 17.34 -4 17 C-4.66 16.67 -5.32 16.34 -6 16 Z " fill="#000000" transform="translate(312,180)"/>
<path d="M0 0 C3.3 0.99 6.6 1.98 10 3 C9.46393482 10.86228928 6.35349826 18.46975261 2 25 C-1.73487777 24.5020163 -3.81237635 24.12508244 -7 22 C-5.45595827 14.31612175 -3.51517491 7.03034982 0 0 Z " fill="#000000" transform="translate(275,160)"/>
<path d="M0 0 C1.65 0.33 3.3 0.66 5 1 C5 1.66 5 2.32 5 3 C5.86044922 3.40798828 5.86044922 3.40798828 6.73828125 3.82421875 C11.27426018 6.18230106 15.96393381 8.87606432 18.25 13.5625 C17.90091959 16.96603399 16.30216777 18.55830691 14 21 C8.25 19.125 8.25 19.125 6 18 C6 17.34 6 16.68 6 16 C5.2575 15.731875 4.515 15.46375 3.75 15.1875 C1.10938051 14.04723249 -0.85552844 12.90619694 -3 11 C-3 10.34 -3 9.68 -3 9 C-3.66 9 -4.32 9 -5 9 C-4.42647107 5.12867972 -2.51295648 2.91827204 0 0 Z " fill="#000000" transform="translate(179,190)"/>
<path d="M0 0 C3.32861065 3.32861065 4.09726205 5.98011084 5.1875 10.375 C5.36474609 11.035 5.54199219 11.695 5.72460938 12.375 C6.65666564 15.98806753 7.20886724 19.26919901 7 23 C4.42372291 24.25133459 2.40770006 24.9870981 -0.46875 25.078125 C-3.47952916 23.7957561 -3.61231251 23.25082736 -4.80078125 20.32421875 C-5.32601085 18.7857614 -5.82913639 17.23962009 -6.3125 15.6875 C-6.57611328 14.91470703 -6.83972656 14.14191406 -7.11132812 13.34570312 C-8.34495139 9.61919959 -9 6.99862368 -9 3 C-6.03 2.01 -3.06 1.02 0 0 Z " fill="#000000" transform="translate(227,159)"/>
<path d="M0 0 C5.32975854 4.24205271 10.77354641 8.89733285 14 15 C13.69652701 19.35193179 12.25602509 21.16410718 9 24 C8.01 23.67 7.02 23.34 6 23 C6 22.34 6 21.68 6 21 C5.360625 20.731875 4.72125 20.46375 4.0625 20.1875 C2 19 2 19 1 16 C0.34 15.67 -0.32 15.34 -1 15 C-3 14 -3 14 -4 11 C-4.66 11 -5.32 11 -6 11 C-6.33 9.35 -6.66 7.7 -7 6 C-4.69 4.02 -2.38 2.04 0 0 Z " fill="#000000" transform="translate(193,176)"/>
<path d="M0 0 C1.41805831 0.28482368 2.83440379 0.57818144 4.25 0.875 C5.03890625 1.03742188 5.8278125 1.19984375 6.640625 1.3671875 C8.96831144 1.99150075 10.89031952 2.84838542 13 4 C13 4.66 13 5.32 13 6 C14.670625 6.4021875 14.670625 6.4021875 16.375 6.8125 C20 8 20 8 22 11 C20.68 13.31 19.36 15.62 18 18 C15.03 17.34 12.06 16.68 9 16 C9 15.34 9 14.68 9 14 C7.948125 13.87625 6.89625 13.7525 5.8125 13.625 C2.54041229 13.08859218 -0.00536076 12.36119965 -3 11 C-2.5251065 6.88425629 -1.9789756 3.63616656 0 0 Z " fill="#000000" transform="translate(168,206)"/>
<path d="M0 0 C3.06504968 2.38130783 4.54823906 5.56412582 6.28125 8.953125 C6.64476562 9.62601563 7.00828125 10.29890625 7.3828125 10.9921875 C9.22222843 14.50505702 10.03125 16.54245947 10.03125 20.578125 C7.48623029 22.68685562 5.92008215 23.59942289 2.5859375 23.51953125 C-1.08161555 22.16803234 -1.84317396 20.10111471 -3.65625 16.703125 C-4.23761719 15.63320312 -4.81898438 14.56328125 -5.41796875 13.4609375 C-5.92972656 12.50960937 -6.44148437 11.55828125 -6.96875 10.578125 C-7.62875 9.588125 -8.28875 8.598125 -8.96875 7.578125 C-8.96875 6.258125 -8.96875 4.938125 -8.96875 3.578125 C-2.63330696 -0.56428006 -2.63330696 -0.56428006 0 0 Z " fill="#000000" transform="translate(209.96875,166.421875)"/>
<path d="M0 0 C4.36962928 0.51407403 7.94603566 1.35910967 12 3 C14.36443762 3.48751291 16.72953713 3.93401047 19.109375 4.33984375 C19.73328125 4.55769531 20.3571875 4.77554688 21 5 C22.31223496 8.93670488 21.24296256 11.12488144 20 15 C12.97326485 14.49656013 5.98059091 13.95812032 -1 13 C-2.0070238 7.96488101 -1.97387813 4.76052962 0 0 Z " fill="#000000" transform="translate(162,223)"/>
<path d="M0 0 C4.40021656 0.36668471 6.744666 2.11670417 10 5 C7.81611669 9.71718795 5.40483525 14.14340755 2.5625 18.5 C1.72912109 19.78390625 1.72912109 19.78390625 0.87890625 21.09375 C-1 23 -1 23 -3.578125 23.359375 C-6.55473568 22.91768438 -7.91461173 22.16262487 -10 20 C-10 18.68 -10 17.36 -10 16 C-9.34 16 -8.68 16 -8 16 C-7.896875 15.28328125 -7.79375 14.5665625 -7.6875 13.828125 C-6.92197309 10.67902565 -5.70915043 8.49450117 -4 5.75 C-3.46375 4.87859375 -2.9275 4.0071875 -2.375 3.109375 C-1 1 -1 1 0 0 Z " fill="#000000" transform="translate(292,168)"/>
<path d="M0 0 C1.258125 -0.04125 2.51625 -0.0825 3.8125 -0.125 C4.52019531 -0.14820313 5.22789062 -0.17140625 5.95703125 -0.1953125 C8 0 8 0 11 2 C10.71703381 4.73032273 10.42396118 7.45892148 10.125 10.1875 C10.00705078 11.34088867 10.00705078 11.34088867 9.88671875 12.51757812 C9.42471896 16.65780704 8.8160807 20.19233501 7 24 C4.03 23.67 1.06 23.34 -2 23 C-3 19 -3 19 -2 17 C-1.79396355 14.69067477 -1.63376638 12.37713617 -1.5 10.0625 C-1.11013767 3.33041302 -1.11013767 3.33041302 0 0 Z " fill="#000000" transform="translate(256,157)"/>
<path d="M0 0 C0.9075 0.00257813 1.815 0.00515625 2.75 0.0078125 C4.11125 0.00394531 4.11125 0.00394531 5.5 0 C7.75 0.1328125 7.75 0.1328125 8.75 1.1328125 C8.83700342 2.76754132 8.85701063 4.40595305 8.84765625 6.04296875 C8.84443359 7.03232422 8.84121094 8.02167969 8.83789062 9.04101562 C8.82951172 10.08193359 8.82113281 11.12285156 8.8125 12.1953125 C8.80798828 13.24009766 8.80347656 14.28488281 8.79882812 15.36132812 C8.78699913 17.9518791 8.77051689 20.54231809 8.75 23.1328125 C5.78 23.1328125 2.81 23.1328125 -0.25 23.1328125 C-3.08736317 7.10033325 -3.08736317 7.10033325 -3.25 1.1328125 C-2.25 0.1328125 -2.25 0.1328125 0 0 Z " fill="#000000" transform="translate(239.25,156.8671875)"/>
<path d="M0 0 C7.42686315 -0.10331031 14.63512596 0.00137301 22 1 C22.33 2.65 22.66 4.3 23 6 C18.2029076 8.55975195 13.92381452 8.03828449 8.6875 7.625 C7.85154297 7.56828125 7.01558594 7.5115625 6.15429688 7.453125 C4.10213072 7.31240504 2.05093882 7.1576007 0 7 C0 4.69 0 2.38 0 0 Z " fill="#000000" transform="translate(159,242)"/>
</svg>
